<?xml version="1.0" encoding="UTF-8"?>
<svg xmlns="http://www.w3.org/2000/svg" viewBox="64 7 62 62">
  <rect x="64" y="7" width="62" height="62" rx="8" fill="#0d0906"/>
  <path fill="#fffbf1" d="M73.4,63.7V13.3h20.7c4.5,0,8.3.7,11.5,2.1,3.2,1.4,5.7,3.5,7.4,6.2,1.7,2.7,2.6,5.9,2.6,9.6s-.9,6.9-2.6,9.5c-1.7,2.6-4.2,4.7-7.4,6.1-3.2,1.4-7,2.2-11.5,2.2h-15.5l4.1-4.2v18.9h-9.4ZM82.7,45.9l-4.1-4.5h15c4.1,0,7.2-.9,9.3-2.7,2.1-1.8,3.1-4.2,3.1-7.4s-1-5.6-3.1-7.4c-2.1-1.8-5.2-2.6-9.3-2.6h-15l4.1-4.6v29.2ZM106.3,63.7l-12.7-18.3h10l12.8,18.3h-10.1Z"/>
</svg>
