<?xml version="1.0" encoding="UTF-8"?>
<svg xmlns="http://www.w3.org/2000/svg" version="1.1" viewBox="0 0 32 32">
  <defs>
    <style>
      .cls-1 {
        fill: #5e5a55;
      }

      .cls-2 {
        fill: #e72d33;
      }

      .cls-3 {
        fill: #f7b6b2;
      }

      .cls-4 {
        fill: #fffbf2;
      }

      .cls-5 {
        display: none;
      }

      .cls-6 {
        fill: #ef7273;
      }

      .cls-7 {
        fill: #aeaaa3;
      }

      .cls-8 {
        fill: #0d0906;
      }
    </style>
  </defs>
  <!-- Generator: Adobe Illustrator 28.7.1, SVG Export Plug-In . SVG Version: 1.2.0 Build 142)  -->
  <g>
    <g id="Layer_1">
      <rect class="cls-4" x="0" width="32" height="32"/>
      <g class="cls-5">
        <path class="cls-2" d="M9.9,28V3.7h10c2.2,0,4,.3,5.5,1,1.5.7,2.7,1.7,3.6,3,.8,1.3,1.3,2.9,1.3,4.7s-.4,3.3-1.3,4.6-2,2.3-3.6,3-3.4,1-5.5,1h-7.5l2-2v9.1h-4.5ZM14.4,19.4l-2-2.2h7.3c2,0,3.5-.4,4.5-1.3s1.5-2.1,1.5-3.6-.5-2.7-1.5-3.6c-1-.8-2.5-1.3-4.5-1.3h-7.3l2-2.2v14.1ZM25.8,28l-6.2-8.8h4.8l6.2,8.8h-4.9Z"/>
        <path class="cls-6" d="M24.5,28l-6.2-8.8h4.8l6.2,8.8h-4.9ZM8.6,28V3.7h10c2.2,0,4,.3,5.5,1,1.5.7,2.7,1.7,3.6,3,.8,1.3,1.3,2.9,1.3,4.7s-.4,3.3-1.3,4.6-2,2.3-3.6,3-3.4,1-5.5,1h-7.5l2-2v9.1h-4.5ZM13.1,19.4l-2-2.2h7.3c2,0,3.5-.4,4.5-1.3s1.5-2.1,1.5-3.6-.5-2.7-1.5-3.6c-1-.8-2.5-1.3-4.5-1.3h-7.3l2-2.2v14.1Z"/>
        <path class="cls-3" d="M23.2,28l-6.2-8.8h4.8l6.2,8.8h-4.9ZM7.2,28V3.7h10c2.2,0,4,.3,5.5,1,1.5.7,2.7,1.7,3.6,3,.8,1.3,1.3,2.9,1.3,4.7s-.4,3.3-1.3,4.6-2,2.3-3.6,3-3.4,1-5.5,1h-7.5l2-2v9.1h-4.5ZM11.8,19.4l-2-2.2h7.3c2,0,3.5-.4,4.5-1.3s1.5-2.1,1.5-3.6-.5-2.7-1.5-3.6c-1-.8-2.5-1.3-4.5-1.3h-7.3l2-2.2v14.1Z"/>
        <path class="cls-4" d="M5.9,28V3.7h10c2.2,0,4,.3,5.5,1,1.5.7,2.7,1.7,3.6,3,.8,1.3,1.3,2.9,1.3,4.7s-.4,3.3-1.3,4.6-2,2.3-3.6,3-3.4,1-5.5,1h-7.5l2-2v9.1h-4.5ZM10.4,19.4l-2-2.2h7.3c2,0,3.5-.4,4.5-1.3s1.5-2.1,1.5-3.6-.5-2.7-1.5-3.6c-1-.8-2.5-1.3-4.5-1.3h-7.3l2-2.2v14.1ZM21.8,28l-6.2-8.8h4.8l6.2,8.8h-4.9Z"/>
        <path class="cls-7" d="M20.5,28l-6.2-8.8h4.8l6.2,8.8h-4.9ZM4.6,28V3.7h10c2.2,0,4,.3,5.5,1,1.5.7,2.7,1.7,3.6,3,.8,1.3,1.3,2.9,1.3,4.7s-.4,3.3-1.3,4.6-2,2.3-3.6,3-3.4,1-5.5,1h-7.5l2-2v9.1h-4.5ZM9.1,19.4l-2-2.2h7.3c2,0,3.5-.4,4.5-1.3s1.5-2.1,1.5-3.6-.5-2.7-1.5-3.6c-1-.8-2.5-1.3-4.5-1.3h-7.3l2-2.2v14.1Z"/>
        <path class="cls-1" d="M19.2,28l-6.2-8.8h4.8l6.2,8.8h-4.9ZM3.2,28V3.7h10c2.2,0,4,.3,5.5,1,1.5.7,2.7,1.7,3.6,3,.8,1.3,1.3,2.9,1.3,4.7s-.4,3.3-1.3,4.6-2,2.3-3.6,3-3.4,1-5.5,1h-7.5l2-2v9.1H3.2ZM7.8,19.4l-2-2.2h7.3c2,0,3.5-.4,4.5-1.3s1.5-2.1,1.5-3.6-.5-2.7-1.5-3.6c-1-.8-2.5-1.3-4.5-1.3h-7.3l2-2.2v14.1Z"/>
        <path class="cls-8" d="M1.9,28V3.7h10c2.2,0,4,.3,5.5,1,1.5.7,2.7,1.7,3.6,3,.8,1.3,1.3,2.9,1.3,4.7s-.4,3.3-1.3,4.6-2,2.3-3.6,3-3.4,1-5.5,1h-7.5l2-2v9.1H1.9ZM6.4,19.4l-2-2.2h7.3c2,0,3.5-.4,4.5-1.3s1.5-2.1,1.5-3.6-.5-2.7-1.5-3.6c-1-.8-2.5-1.3-4.5-1.3h-7.3l2-2.2v14.1ZM17.8,28l-6.2-8.8h4.8l6.2,8.8h-4.9Z"/>
      </g>
      <g>
        <path class="cls-2" d="M9.9,28V3.7h10c2.2,0,4,.3,5.5,1,1.5.7,2.7,1.7,3.6,3,.8,1.3,1.3,2.9,1.3,4.7s-.4,3.3-1.3,4.6-2,2.3-3.6,3-3.4,1-5.5,1h-7.5l2-2v9.1h-4.5ZM14.4,19.4l-2-2.2h7.3c2,0,3.5-.4,4.5-1.3s1.5-2.1,1.5-3.6-.5-2.7-1.5-3.6c-1-.8-2.5-1.3-4.5-1.3h-7.3l2-2.2v14.1ZM25.8,28l-6.2-8.8h4.8l6.2,8.8h-4.9Z"/>
        <path class="cls-6" d="M24.5,28l-6.2-8.8h4.8l6.2,8.8h-4.9ZM8.6,28V3.7h10c2.2,0,4,.3,5.5,1,1.5.7,2.7,1.7,3.6,3,.8,1.3,1.3,2.9,1.3,4.7s-.4,3.3-1.3,4.6-2,2.3-3.6,3-3.4,1-5.5,1h-7.5l2-2v9.1h-4.5ZM13.1,19.4l-2-2.2h7.3c2,0,3.5-.4,4.5-1.3s1.5-2.1,1.5-3.6-.5-2.7-1.5-3.6c-1-.8-2.5-1.3-4.5-1.3h-7.3l2-2.2v14.1Z"/>
        <path class="cls-3" d="M23.2,28l-6.2-8.8h4.8l6.2,8.8h-4.9ZM7.2,28V3.7h10c2.2,0,4,.3,5.5,1,1.5.7,2.7,1.7,3.6,3,.8,1.3,1.3,2.9,1.3,4.7s-.4,3.3-1.3,4.6-2,2.3-3.6,3-3.4,1-5.5,1h-7.5l2-2v9.1h-4.5ZM11.8,19.4l-2-2.2h7.3c2,0,3.5-.4,4.5-1.3s1.5-2.1,1.5-3.6-.5-2.7-1.5-3.6c-1-.8-2.5-1.3-4.5-1.3h-7.3l2-2.2v14.1Z"/>
        <path class="cls-4" d="M5.9,28V3.7h10c2.2,0,4,.3,5.5,1,1.5.7,2.7,1.7,3.6,3,.8,1.3,1.3,2.9,1.3,4.7s-.4,3.3-1.3,4.6-2,2.3-3.6,3-3.4,1-5.5,1h-7.5l2-2v9.1h-4.5ZM10.4,19.4l-2-2.2h7.3c2,0,3.5-.4,4.5-1.3s1.5-2.1,1.5-3.6-.5-2.7-1.5-3.6c-1-.8-2.5-1.3-4.5-1.3h-7.3l2-2.2v14.1ZM21.8,28l-6.2-8.8h4.8l6.2,8.8h-4.9Z"/>
        <path class="cls-7" d="M20.5,28l-6.2-8.8h4.8l6.2,8.8h-4.9ZM4.6,28V3.7h10c2.2,0,4,.3,5.5,1,1.5.7,2.7,1.7,3.6,3,.8,1.3,1.3,2.9,1.3,4.7s-.4,3.3-1.3,4.6-2,2.3-3.6,3-3.4,1-5.5,1h-7.5l2-2v9.1h-4.5ZM9.1,19.4l-2-2.2h7.3c2,0,3.5-.4,4.5-1.3s1.5-2.1,1.5-3.6-.5-2.7-1.5-3.6c-1-.8-2.5-1.3-4.5-1.3h-7.3l2-2.2v14.1Z"/>
        <path class="cls-1" d="M19.2,28l-6.2-8.8h4.8l6.2,8.8h-4.9ZM3.2,28V3.7h10c2.2,0,4,.3,5.5,1,1.5.7,2.7,1.7,3.6,3,.8,1.3,1.3,2.9,1.3,4.7s-.4,3.3-1.3,4.6-2,2.3-3.6,3-3.4,1-5.5,1h-7.5l2-2v9.1H3.2ZM7.8,19.4l-2-2.2h7.3c2,0,3.5-.4,4.5-1.3s1.5-2.1,1.5-3.6-.5-2.7-1.5-3.6c-1-.8-2.5-1.3-4.5-1.3h-7.3l2-2.2v14.1Z"/>
        <path class="cls-8" d="M1.9,28V3.7h10c2.2,0,4,.3,5.5,1,1.5.7,2.7,1.7,3.6,3,.8,1.3,1.3,2.9,1.3,4.7s-.4,3.3-1.3,4.6-2,2.3-3.6,3-3.4,1-5.5,1h-7.5l2-2v9.1H1.9ZM6.4,19.4l-2-2.2h7.3c2,0,3.5-.4,4.5-1.3s1.5-2.1,1.5-3.6-.5-2.7-1.5-3.6c-1-.8-2.5-1.3-4.5-1.3h-7.3l2-2.2v14.1ZM17.8,28l-6.2-8.8h4.8l6.2,8.8h-4.9Z"/>
      </g>
    </g>
  </g>
</svg>