<svg xmlns="http://www.w3.org/2000/svg" width="1024" height="1024" viewBox="0 0 240 240"><defs><g id="wm">
<path d="M73.4,63.7V13.3h20.7c4.5,0,8.3.7,11.5,2.1,3.2,1.4,5.7,3.5,7.4,6.2,1.7,2.7,2.6,5.9,2.6,9.6s-.9,6.9-2.6,9.5c-1.7,2.6-4.2,4.7-7.4,6.1-3.2,1.4-7,2.2-11.5,2.2h-15.5l4.1-4.2v18.9h-9.4ZM82.7,45.9l-4.1-4.5h15c4.1,0,7.2-.9,9.3-2.7,2.1-1.8,3.1-4.2,3.1-7.4s-1-5.6-3.1-7.4c-2.1-1.8-5.2-2.6-9.3-2.6h-15l4.1-4.6v29.2ZM106.3,63.7l-12.7-18.3h10l12.8,18.3h-10.1Z"/>
<path d="M142.6,55.8h28.4v7.9h-37.8V13.3h36.8v7.9h-27.4v34.6ZM141.8,34.3h25.1v7.7h-25.1v-7.7Z"/>
<path d="M188.2,63.7v-27.9c0-5,.9-9.3,2.8-12.7s4.5-6.1,7.8-7.8c3.4-1.8,7.2-2.6,11.7-2.6s8.4.9,11.8,2.6c3.4,1.8,6,4.4,7.8,7.8,1.8,3.5,2.8,7.7,2.8,12.7v27.9h-9.3v-28.8c0-4.8-1.2-8.3-3.6-10.6-2.4-2.3-5.6-3.5-9.5-3.5s-7.2,1.2-9.5,3.5c-2.4,2.3-3.6,5.9-3.6,10.6v28.8h-9.2ZM194.1,50.7v-7.8h32.8v7.8h-32.8Z"/>
<path d="M253.3,63.7V13.3h9.4v42.5h26.4v7.9h-35.7Z"/>
<path d="M299.8,21.2v-7.9h27.9v7.9h-27.9ZM299.8,63.7v-7.9h27.9v7.9h-27.9ZM309,62.6V14.3h9.4v48.3h-9.4Z"/>
<path d="M354.8,63.7V21.2h-16.7v-7.9h42.8v7.9h-16.7v42.5h-9.4Z"/>
<path d="M415.7,71.4c-4.2,0-8.1-.6-11.5-1.9-3.5-1.2-6.4-3-8.7-5.2l3.8-7.2c2.3,2,4.7,3.5,7.5,4.5,2.7,1,5.7,1.5,9,1.5s7.8-1.2,10.2-3.5c2.3-2.4,3.5-6,3.5-10.9v-9.8l2.7,1.2c-1.6,3.9-4,6.7-7,8.5-3,1.8-6.6,2.7-10.6,2.7-6.3,0-11.3-1.8-14.8-5.4-3.5-3.6-5.3-8.9-5.3-15.7V13.3h9.4v16.5c0,4.5,1.1,7.9,3.3,10.1,2.2,2.2,5.1,3.3,8.8,3.3s7.2-1.2,9.7-3.5c2.5-2.3,3.7-6,3.7-10.9v-15.6h9.4v35c0,5.1-.9,9.3-2.8,12.7s-4.5,6-7.9,7.7c-3.4,1.8-7.5,2.7-12.2,2.7Z"/></g><clipPath id="disc"><circle cx="120" cy="120" r="120"/></clipPath></defs><g clip-path="url(#disc)"><rect width="240" height="240" fill="#ed1b72"/><circle cx="113" cy="113" r="120" fill="#fffbf1"/></g><circle cx="120" cy="120" r="106" fill="none" stroke="#0a0703" stroke-width="1.5"/><path id="u_top" d="M 30,120 A 90,90 0 0 1 210,120" fill="none"/><text font-family="Montserrat, sans-serif" font-weight="700" font-size="10.5" letter-spacing="1.5" fill="#0a0703"><textPath href="#u_top" startOffset="50%" text-anchor="middle">86 MAI THÚC LÂN</textPath></text><path id="u_bottom" d="M 24,120 A 96,96 0 0 0 216,120" fill="none"/><text font-family="Montserrat, sans-serif" font-weight="700" font-size="10" letter-spacing="1" fill="#0a0703"><textPath href="#u_bottom" startOffset="50%" text-anchor="middle">ĐÀ NẴNG · VIỆT NAM</textPath></text><svg x="45.00" y="107.70" width="150" height="24.61" viewBox="0 0 512 84"><use href="#wm" fill="#0a0703"/></svg></svg>